<?xml version="1.0" encoding="UTF-8" standalone="no"?>
<!DOCTYPE svg PUBLIC "-//W3C//DTD SVG 1.1//EN" "http://www.w3.org/Graphics/SVG/1.1/DTD/svg11.dtd">
<svg width="100%" height="100%" viewBox="0 0 2048 2048" version="1.1" xmlns="http://www.w3.org/2000/svg" xmlns:xlink="http://www.w3.org/1999/xlink" xml:space="preserve" xmlns:serif="http://www.serif.com/" style="fill-rule:evenodd;clip-rule:evenodd;stroke-linejoin:round;stroke-miterlimit:2;">
    <g transform="matrix(3.29454,0,0,3.29454,-2302.29,-2174.98)">
        <g>
            <g transform="matrix(1,0,0,1,-189.216,-252.456)">
                <g transform="matrix(1,0,0,1,-258.313,-112.312)">
                    <g transform="matrix(0.77081,0,0,0.77081,336.897,335.69)">
                        <path d="M1481.51,927.162L1542.66,962.464L1542.66,1033.07L1481.51,1068.37L1420.37,1033.07L1420.37,962.464L1481.51,927.162Z"/>
                    </g>
                    <g transform="matrix(0.637746,0,0,0.637746,534.034,468.457)">
                        <path d="M1481.51,927.162L1542.66,962.464L1542.66,1033.07L1481.51,1068.37L1420.37,1033.07L1420.37,962.464L1481.51,927.162Z" style="fill:rgb(112,214,255);"/>
                    </g>
                </g>
                <g transform="matrix(1,0,0,1,-172.188,-112.312)">
                    <g transform="matrix(0.77081,0,0,0.77081,336.897,335.69)">
                        <path d="M1481.51,927.162L1542.66,962.464L1542.66,1033.07L1481.51,1068.37L1420.37,1033.07L1420.37,962.464L1481.51,927.162Z"/>
                    </g>
                    <g transform="matrix(0.637746,0,0,0.637746,534.034,468.457)">
                        <path d="M1481.51,927.162L1542.66,962.464L1542.66,1033.07L1481.51,1068.37L1420.37,1033.07L1420.37,962.464L1481.51,927.162Z" style="fill:rgb(112,214,255);"/>
                    </g>
                </g>
                <g transform="matrix(1,0,0,1,-129.125,-37.7288)">
                    <g transform="matrix(0.77081,0,0,0.77081,336.897,335.69)">
                        <path d="M1481.51,927.162L1542.66,962.464L1542.66,1033.07L1481.51,1068.37L1420.37,1033.07L1420.37,962.464L1481.51,927.162Z"/>
                    </g>
                    <g transform="matrix(0.637746,0,0,0.637746,534.034,468.457)">
                        <path d="M1481.51,927.162L1542.66,962.464L1542.66,1033.07L1481.51,1068.37L1420.37,1033.07L1420.37,962.464L1481.51,927.162Z" style="fill:rgb(112,214,255);"/>
                    </g>
                </g>
            </g>
            <g transform="matrix(-0.5,0.866025,-0.866025,-0.5,2629.29,438.228)">
                <g transform="matrix(1,0,0,1,-258.313,-112.312)">
                    <g transform="matrix(0.77081,0,0,0.77081,336.897,335.69)">
                        <path d="M1481.51,927.162L1542.66,962.464L1542.66,1033.07L1481.51,1068.37L1420.37,1033.07L1420.37,962.464L1481.51,927.162Z"/>
                    </g>
                    <g transform="matrix(0.637746,0,0,0.637746,534.034,468.457)">
                        <path d="M1481.51,927.162L1542.66,962.464L1542.66,1033.07L1481.51,1068.37L1420.37,1033.07L1420.37,962.464L1481.51,927.162Z" style="fill:rgb(112,214,255);"/>
                    </g>
                </g>
                <g transform="matrix(1,0,0,1,-172.188,-112.312)">
                    <g transform="matrix(0.77081,0,0,0.77081,336.897,335.69)">
                        <path d="M1481.51,927.162L1542.66,962.464L1542.66,1033.07L1481.51,1068.37L1420.37,1033.07L1420.37,962.464L1481.51,927.162Z"/>
                    </g>
                    <g transform="matrix(0.637746,0,0,0.637746,534.034,468.457)">
                        <path d="M1481.51,927.162L1542.66,962.464L1542.66,1033.07L1481.51,1068.37L1420.37,1033.07L1420.37,962.464L1481.51,927.162Z" style="fill:rgb(112,214,255);"/>
                    </g>
                </g>
                <g transform="matrix(1,0,0,1,-129.125,-37.7288)">
                    <g transform="matrix(0.77081,0,0,0.77081,336.897,335.69)">
                        <path d="M1481.51,927.162L1542.66,962.464L1542.66,1033.07L1481.51,1068.37L1420.37,1033.07L1420.37,962.464L1481.51,927.162Z"/>
                    </g>
                    <g transform="matrix(0.637746,0,0,0.637746,534.034,468.457)">
                        <path d="M1481.51,927.162L1542.66,962.464L1542.66,1033.07L1481.51,1068.37L1420.37,1033.07L1420.37,962.464L1481.51,927.162Z" style="fill:rgb(112,214,255);"/>
                    </g>
                </g>
            </g>
            <g transform="matrix(-0.5,-0.866025,0.866025,-0.5,626.792,2534.8)">
                <g transform="matrix(1,0,0,1,-258.313,-112.312)">
                    <g transform="matrix(0.77081,0,0,0.77081,336.897,335.69)">
                        <path d="M1481.51,927.162L1542.66,962.464L1542.66,1033.07L1481.51,1068.37L1420.37,1033.07L1420.37,962.464L1481.51,927.162Z"/>
                    </g>
                    <g transform="matrix(0.637746,0,0,0.637746,534.034,468.457)">
                        <path d="M1481.51,927.162L1542.66,962.464L1542.66,1033.07L1481.51,1068.37L1420.37,1033.07L1420.37,962.464L1481.51,927.162Z" style="fill:rgb(255,112,166);"/>
                    </g>
                </g>
                <g transform="matrix(1,0,0,1,-172.188,-112.312)">
                    <g transform="matrix(0.77081,0,0,0.77081,336.897,335.69)">
                        <path d="M1481.51,927.162L1542.66,962.464L1542.66,1033.07L1481.51,1068.37L1420.37,1033.07L1420.37,962.464L1481.51,927.162Z"/>
                    </g>
                    <g transform="matrix(0.637746,0,0,0.637746,534.034,468.457)">
                        <path d="M1481.51,927.162L1542.66,962.464L1542.66,1033.07L1481.51,1068.37L1420.37,1033.07L1420.37,962.464L1481.51,927.162Z" style="fill:rgb(255,112,166);"/>
                    </g>
                </g>
                <g transform="matrix(1,0,0,1,-129.125,-37.7288)">
                    <g transform="matrix(0.77081,0,0,0.77081,336.897,335.69)">
                        <path d="M1481.51,927.162L1542.66,962.464L1542.66,1033.07L1481.51,1068.37L1420.37,1033.07L1420.37,962.464L1481.51,927.162Z"/>
                    </g>
                    <g transform="matrix(0.637746,0,0,0.637746,534.034,468.457)">
                        <path d="M1481.51,927.162L1542.66,962.464L1542.66,1033.07L1481.51,1068.37L1420.37,1033.07L1420.37,962.464L1481.51,927.162Z" style="fill:rgb(255,112,166);"/>
                    </g>
                </g>
            </g>
            <g transform="matrix(1,0,0,1,273.749,-205.354)">
                <path d="M697.743,1092.84L697.743,1036.98L760.204,1036.98C771.74,1036.98 781.728,1038.95 790.168,1042.88C798.609,1046.82 805.502,1052.2 810.848,1059.03C816.194,1065.85 820.168,1073.83 822.77,1082.98C825.373,1092.12 826.674,1101.9 826.674,1112.31C826.674,1122.72 825.373,1132.5 822.77,1141.64C820.168,1150.78 816.194,1158.77 810.848,1165.59C805.502,1172.41 798.609,1177.79 790.168,1181.73C781.728,1185.67 771.74,1187.64 760.204,1187.64L697.743,1187.64L697.743,1114.82L698.055,1114.52L698.82,1115.26L699.883,1116.39L701.506,1118.22L706.047,1123.43L706.41,1123.83L707.759,1125.23L708.132,1125.59L709.377,1126.76L709.846,1127.18L710.883,1128.04L711.461,1128.49L712.499,1129.25L713.213,1129.72L714.147,1130.29L715.004,1130.77L715.938,1131.23L716.926,1131.66L717.757,1131.97L718.847,1132.32L719.677,1132.55L720.902,1132.8L721.732,1132.93L723.044,1133.05L723.874,1133.08L724.12,1133.07L724.12,1166.12L750.075,1166.12C760.345,1166.12 768.75,1164.75 775.292,1162C781.833,1159.26 786.968,1155.46 790.696,1150.61C794.424,1145.76 796.956,1140.06 798.292,1133.52C799.629,1126.97 800.297,1119.9 800.297,1112.31C800.297,1104.71 799.629,1097.64 798.292,1091.1C796.956,1084.56 794.424,1078.86 790.696,1074.01C786.968,1069.16 781.833,1065.36 775.292,1062.62C768.75,1059.87 760.345,1058.5 750.075,1058.5L724.12,1058.5L724.12,1111.38L724.106,1111.39L723.586,1110.9L722.605,1109.88L718.216,1104.85L718.183,1104.81L718.169,1104.79L716.405,1102.8L716.403,1102.8C716.35,1102.74 716.296,1102.68 716.24,1102.62L716.165,1102.54L714.817,1101.11L714.482,1100.77L713.237,1099.57L712.813,1099.18L711.775,1098.28L711.249,1097.85L710.212,1097.06L709.558,1096.6L708.624,1095.99L707.834,1095.52L706.9,1095.02L705.982,1094.57L705.152,1094.22L704.124,1093.84L703.294,1093.58L702.121,1093.28L701.291,1093.12L700.008,1092.93L699.178,1092.87L697.844,1092.83L697.743,1092.84Z"/>
                <g transform="matrix(0.340552,0,0,0.42056,637.39,1098.04)">
                    <path d="M50.07,37.309L71.406,24.979L85.513,37.88L89.39,41.16L92.528,43.565L95.215,45.387L97.441,46.691L99.189,47.553L100.746,48.174L101.829,48.505L102.742,48.701L103.493,48.792L104.166,48.81L104.861,48.762L105.676,48.629L106.677,48.374L107.86,47.965L109.518,47.241L111.358,46.268L113.678,44.833L116.147,43.098L119.346,40.591L122.965,37.489L127.977,32.895L141.355,20.466C141.496,20.335 141.641,20.207 141.791,20.081L145.752,16.76C145.898,16.638 146.049,16.518 146.203,16.4L149.859,13.623C150.045,13.482 150.236,13.345 150.433,13.212L153.48,11.156C153.711,11 153.949,10.85 154.195,10.706L157.241,8.92C157.531,8.75 157.83,8.589 158.138,8.436L160.88,7.082C161.233,6.908 161.597,6.745 161.971,6.596L164.713,5.499C165.127,5.334 165.553,5.184 165.988,5.05L168.426,4.303C168.891,4.161 169.367,4.037 169.851,3.933L172.288,3.408C172.819,3.294 173.358,3.204 173.904,3.137L176.341,2.84C176.917,2.77 177.499,2.727 178.083,2.711L180.521,2.644C181.112,2.628 181.704,2.64 182.293,2.68L184.731,2.845C185.302,2.883 185.869,2.948 186.429,3.039L188.867,3.433C189.388,3.517 189.903,3.624 190.407,3.752L192.844,4.372C193.298,4.488 193.743,4.621 194.178,4.77L196.615,5.61C197.018,5.748 197.411,5.901 197.792,6.068L200.534,7.264C200.876,7.413 201.209,7.573 201.532,7.743L204.274,9.191C204.553,9.339 204.825,9.494 205.089,9.657L208.135,11.538C208.357,11.675 208.573,11.817 208.782,11.965L211.829,14.105C212.006,14.229 212.178,14.357 212.346,14.488L216.002,17.351C216.139,17.459 216.274,17.569 216.405,17.681L220.365,21.073L220.652,21.327L225.831,26.074L225.888,26.126L239.083,38.387L242.601,41.338L245.747,43.73L248.153,45.355L250.399,46.673L252.151,47.54L253.713,48.166L254.8,48.5L255.716,48.698L256.47,48.791L257.143,48.81L257.837,48.763L258.649,48.633L259.646,48.38L260.825,47.975L262.478,47.255L264.315,46.287L266.632,44.858L269.107,43.12L272.013,40.855L275.627,37.78L280.629,33.213L294.917,19.969C295.073,19.825 295.233,19.684 295.399,19.546L299.36,16.267C299.508,16.144 299.66,16.025 299.816,15.908L303.167,13.394C303.351,13.256 303.54,13.123 303.734,12.993L306.781,10.959C307.018,10.8 307.262,10.648 307.514,10.503L310.56,8.74C310.857,8.569 311.163,8.406 311.479,8.253L314.221,6.922C314.581,6.747 314.953,6.585 315.335,6.435L318.078,5.364C318.5,5.199 318.934,5.05 319.377,4.918L321.815,4.195C322.287,4.054 322.771,3.933 323.262,3.832L325.699,3.332C326.236,3.222 326.781,3.135 327.332,3.074L329.769,2.801C330.349,2.736 330.934,2.699 331.52,2.689L333.957,2.647C334.548,2.636 335.139,2.654 335.727,2.7L338.164,2.889C338.731,2.933 339.294,3.003 339.849,3.098L342.287,3.517C342.802,3.605 343.309,3.715 343.807,3.847L346.244,4.49C346.69,4.608 347.128,4.743 347.554,4.894L349.992,5.756C350.386,5.895 350.771,6.049 351.145,6.215L353.887,7.436C354.221,7.584 354.547,7.744 354.862,7.913L357.604,9.383C357.877,9.53 358.142,9.683 358.399,9.844L361.446,11.749C361.672,11.89 361.891,12.036 362.103,12.188L365.454,14.578C365.631,14.704 365.803,14.833 365.969,14.965L369.625,17.873C369.758,17.978 369.888,18.086 370.015,18.196L374.28,21.898L374.554,22.143L380.342,27.506L380.434,27.592L392.69,39.206L371.064,51.267L358.854,39.696L353.245,34.5L349.309,31.084L346.103,28.534L343.335,26.561L341.013,25.109L339.153,24.111L337.474,23.364L336.27,22.938L335.249,22.668L334.418,22.526L333.715,22.471L333.045,22.483L332.305,22.565L331.411,22.749L330.349,23.064L328.814,23.664L327.087,24.503L324.863,25.789L322.463,27.392L319.621,29.523L316.131,32.413L302.045,45.47L301.983,45.526L296.804,50.256L296.504,50.52L292.543,53.891C292.414,54 292.282,54.108 292.147,54.214L288.795,56.825C288.633,56.951 288.467,57.074 288.296,57.194L285.25,59.333C285.04,59.48 284.824,59.622 284.601,59.76L281.555,61.639C281.291,61.802 281.018,61.958 280.738,62.105L277.996,63.551C277.673,63.722 277.339,63.882 276.997,64.031L274.255,65.225C273.872,65.391 273.478,65.544 273.075,65.683L270.638,66.52C270.203,66.669 269.757,66.802 269.302,66.917L266.865,67.535C266.36,67.663 265.845,67.769 265.323,67.853L262.886,68.246C262.325,68.336 261.757,68.4 261.186,68.438L258.748,68.601C258.159,68.64 257.567,68.651 256.976,68.635L254.538,68.566C253.955,68.55 253.373,68.506 252.797,68.435L250.359,68.136C249.814,68.069 249.275,67.978 248.745,67.864L246.308,67.337C245.825,67.232 245.349,67.109 244.885,66.966L242.448,66.217C242.013,66.083 241.588,65.933 241.175,65.768L238.433,64.669C238.059,64.519 237.696,64.357 237.344,64.183L234.602,62.826C234.295,62.674 233.996,62.513 233.707,62.343L230.66,60.554C230.415,60.411 230.177,60.261 229.947,60.105L226.9,58.047C226.704,57.914 226.513,57.778 226.327,57.637L222.671,54.858C222.517,54.74 222.367,54.621 222.221,54.498L218.261,51.176C218.111,51.05 217.967,50.923 217.826,50.792L204.449,38.362L199.439,33.77L195.82,30.671L192.622,28.167L190.155,26.434L187.836,25.002L185.998,24.031L184.343,23.309L183.162,22.902L182.163,22.648L181.349,22.516L180.654,22.469L179.982,22.488L179.229,22.58L178.315,22.776L177.229,23.109L175.67,23.732L173.92,24.597L171.676,25.913L169.272,27.536L166.126,29.925L162.61,32.873L149.416,45.132L149.36,45.183L144.181,49.93L143.895,50.183L139.935,53.577C139.804,53.689 139.67,53.799 139.533,53.907L135.877,56.771C135.71,56.902 135.538,57.03 135.361,57.154L132.315,59.296C132.106,59.443 131.891,59.585 131.669,59.722L128.623,61.606C128.36,61.768 128.089,61.923 127.809,62.071L125.067,63.521C124.745,63.691 124.413,63.851 124.072,64L121.33,65.198C120.949,65.365 120.557,65.518 120.155,65.656L117.718,66.498C117.284,66.648 116.839,66.781 116.386,66.896L113.949,67.518C113.445,67.647 112.931,67.754 112.41,67.839L109.973,68.235C109.413,68.326 108.846,68.391 108.276,68.431L105.838,68.598C105.249,68.638 104.657,68.65 104.066,68.635L101.629,68.57C101.044,68.555 100.462,68.512 99.886,68.443L97.448,68.148C96.902,68.082 96.362,67.992 95.831,67.878L93.393,67.355C92.909,67.251 92.432,67.128 91.967,66.986L89.529,66.241C89.093,66.107 88.667,65.958 88.252,65.792L85.51,64.698C85.135,64.548 84.77,64.386 84.417,64.212L81.675,62.859C81.366,62.707 81.066,62.546 80.776,62.376L77.729,60.591C77.473,60.441 77.224,60.284 76.983,60.12L73.631,57.847C73.429,57.71 73.233,57.569 73.043,57.423L69.387,54.622C69.232,54.504 69.082,54.383 68.936,54.259L64.67,50.65C64.557,50.554 64.447,50.457 64.339,50.358L50.07,37.309Z"/>
                </g>
                <g transform="matrix(1.97348e-16,3.22294,-0.994641,6.09042e-17,1591.03,-3175.26)">
                    <rect x="1322.2" y="949.679" width="16.256" height="8.384"/>
                </g>
                <g transform="matrix(1.97348e-16,3.22294,-0.994641,6.09042e-17,1732.05,-3175.26)">
                    <rect x="1322.2" y="949.679" width="16.256" height="8.384"/>
                </g>
            </g>
        </g>
        <g transform="matrix(2.59752,0,0,2.59752,-1021.99,-2073.14)">
            <text x="672.892px" y="1281.02px" style="font-family:'HelveticaNeue-Bold', 'Helvetica Neue';font-weight:700;font-size:50px;">DIA</text>
            <text x="758.942px" y="1281.02px" style="font-family:'HelveticaNeue-Bold', 'Helvetica Neue';font-weight:700;font-size:50px;fill:rgb(255,112,166);">LE</text>
            <g transform="matrix(50,0,0,50,888.592,1281.02)">
            </g>
            <text x="820.992px" y="1281.02px" style="font-family:'HelveticaNeue-Bold', 'Helvetica Neue';font-weight:700;font-size:50px;fill:rgb(112,214,255);">CT</text>
        </g>
    </g>
</svg>
